<svg width="83" height="98" viewBox="0 0 83 98" fill="none" xmlns="http://www.w3.org/2000/svg">
<path d="M72.3284 37.2446C70.4572 36.147 68.0579 36.8006 66.9782 38.7024C65.8985 40.6033 66.5414 43.0438 68.4112 44.1414C69.015 44.4956 69.6845 44.6767 70.3625 44.6767C70.7024 44.6767 71.0455 44.6306 71.3824 44.5393C72.3931 44.264 73.2381 43.6051 73.7604 42.6842C74.2836 41.7637 74.423 40.6902 74.1518 39.6637C73.881 38.6376 73.2342 37.7768 72.3284 37.2446ZM71.9461 41.6187C71.7029 42.0471 71.3105 42.3528 70.8404 42.4808C70.3717 42.6084 69.88 42.5426 69.4587 42.2953C68.589 41.7851 68.2902 40.651 68.7921 39.7669C69.129 39.1742 69.742 38.8421 70.3727 38.8421C70.6816 38.8421 70.9939 38.9216 71.2805 39.0894C72.1492 39.6002 72.449 40.7346 71.9461 41.6187ZM82.4477 48.3972L77.8505 36.7359C76.5874 33.533 73.3585 31.6394 70.0008 32.1283L57.7684 33.9109C55.4595 34.247 53.6225 35.5103 52.4563 37.5643L49.6613 42.485H17.6811C15.947 42.485 14.4193 43.1041 13.263 44.2739V44.2749L11.7804 34.5322C11.7012 34.0126 11.2611 33.6294 10.745 33.6294H1.0478C0.468681 33.6294 0 34.1058 0 34.6946C0 35.2833 0.468689 35.7597 1.0478 35.7597H9.8464L11.803 48.616L15.7366 74.4696C15.9706 76.0082 16.9225 77.5102 18.2207 78.3919C18.2907 78.439 18.3617 78.4821 18.433 78.5249C17.2524 79.6446 16.5198 81.2417 16.5198 82.9595C16.5198 86.0535 18.8225 88.6102 21.7763 88.9538C21.0233 89.908 20.5708 91.1166 20.5708 92.432C20.5708 95.503 23.0279 98 26.0487 98C29.0696 98 31.5258 95.5021 31.5258 92.432C31.5258 91.1353 31.0857 89.9415 30.3524 88.9945H50.8533C50.1197 89.9424 49.68 91.1352 49.68 92.432C49.68 95.503 52.1371 98 55.158 98C58.1788 98 60.635 95.5021 60.635 92.432C60.635 89.362 58.1779 86.8641 55.158 86.8641L22.455 86.8644C20.3367 86.8644 18.6141 85.1132 18.6141 82.9598C18.6141 81.1582 19.8506 79.559 21.5558 79.1538C21.6587 79.136 21.7609 79.115 21.8638 79.0899L50.2158 72.0275L60.4011 78.0061C61.554 78.6827 62.8129 79.0031 64.0565 79.0031C66.5932 79.0031 69.0648 77.6656 70.4216 75.2756L81.9927 54.9006C83.1575 52.8464 83.3162 50.5973 82.4475 48.3968L82.4477 48.3972ZM29.4298 92.4326C29.4298 94.3285 27.9123 95.8702 26.0484 95.8702C24.1835 95.8702 22.666 94.3275 22.666 92.4326C22.666 90.5368 24.1835 88.995 26.0484 88.995C27.9123 88.995 29.4298 90.537 29.4298 92.4326ZM58.5391 92.4326C58.5391 94.3285 57.0217 95.8702 55.1577 95.8702C53.2928 95.8702 51.7753 94.3275 51.7753 92.4326C51.7753 90.5368 53.2928 88.995 55.1577 88.995C57.0212 88.995 58.5391 90.537 58.5391 92.4326ZM21.3649 77.0205C20.5232 77.23 19.8225 76.9189 19.3837 76.6206C18.5708 76.0686 17.9516 75.0976 17.8074 74.1447L13.8738 48.2911C13.7295 47.3421 14.0138 46.5222 14.7425 45.7847C15.5079 45.0096 16.497 44.617 17.6818 44.617H48.4521L40.8857 57.9411C38.8633 61.5023 40.0676 66.0722 43.5706 68.1277L47.5929 70.4887L21.3649 77.0205ZM80.1768 53.8357L68.6057 74.2106C67.1612 76.7547 63.9497 77.6284 61.4482 76.1609L44.6175 66.2823C42.115 64.8138 41.2545 61.549 42.6991 59.006L54.2701 38.631C55.1036 37.1645 56.415 36.2617 58.0647 36.0218L70.2979 34.2392C70.5615 34.2004 70.8234 34.1817 71.0808 34.1817C73.2073 34.1817 75.0876 35.4574 75.9047 37.5303L80.5029 49.1925C81.1221 50.7632 81.0097 52.3687 80.1762 53.8362L80.1768 53.8357ZM55.6817 54.6737C56.3391 55.0592 57.0562 55.2423 57.7659 55.2423C59.2123 55.2423 60.6208 54.4799 61.3944 53.1173C61.9529 52.1339 62.1011 50.9878 61.8119 49.8912C61.5233 48.7946 60.8311 47.8771 59.8635 47.3094C57.8658 46.1373 55.3044 46.8359 54.1505 48.8657C52.9988 50.8965 53.6851 53.5014 55.6818 54.6735L55.6817 54.6737ZM55.966 49.931C56.3525 49.2514 57.0549 48.8712 57.7764 48.8712C58.1297 48.8712 58.4883 48.9624 58.8159 49.1552C59.2981 49.4378 59.6432 49.8956 59.7875 50.4426C59.9318 50.9902 59.8575 51.5612 59.5795 52.0524C59.0046 53.0652 57.7261 53.414 56.7295 52.8286C55.7333 52.2435 55.3912 50.9438 55.966 49.931ZM65.484 61.1766C63.4874 60.0045 60.9249 60.7032 59.771 62.733C58.618 64.7628 59.3053 67.3677 61.302 68.5398C61.9458 68.9181 62.662 69.1105 63.3861 69.1105C63.75 69.1105 64.1155 69.0624 64.475 68.9639C65.5537 68.6695 66.4563 67.9668 67.0147 66.9832C67.5731 65.9998 67.7213 64.8537 67.4321 63.7571C67.1439 62.6609 66.4513 61.7443 65.484 61.1766ZM65.1994 65.9192C64.9213 66.4094 64.471 66.7602 63.933 66.9069C63.3943 67.0536 62.8326 66.9781 62.3504 66.6954C61.3542 66.111 61.012 64.8113 61.5869 63.7982C61.9734 63.1186 62.6757 62.7383 63.3972 62.7383C63.7506 62.7383 64.1091 62.8295 64.4368 63.0223C64.919 63.305 65.2641 63.7627 65.4084 64.3107C65.553 64.857 65.4788 65.428 65.1994 65.9192ZM68.7395 53.1374C69.0291 53.6463 68.8568 54.2978 68.3563 54.5922L53.8572 63.1022C53.6922 63.1984 53.512 63.2445 53.3339 63.2445C52.9714 63.2445 52.62 63.0537 52.4251 62.7112C52.1355 62.2023 52.3078 61.5508 52.8083 61.2564L67.3075 52.7465C67.8093 52.4524 68.4509 52.6272 68.7395 53.1374ZM19.9169 18.1578C19.9169 8.14571 27.9296 0 37.7783 0C47.0161 0 54.6384 7.16639 55.5488 16.3171L56.0743 15.9913C56.569 15.6856 57.2128 15.8436 57.5146 16.3465C57.8153 16.8493 57.6598 17.5039 57.1652 17.8106L55.152 19.0593C55.0005 19.1568 54.8224 19.2153 54.6317 19.2227H54.6288C54.6041 19.2237 54.5805 19.2237 54.5545 19.2227H54.5515C54.3609 19.2153 54.1828 19.1569 54.0313 19.0583L52.0181 17.8096C51.5234 17.5039 51.368 16.848 51.6687 16.3455C51.9695 15.8426 52.6146 15.6846 53.109 15.9903L53.4242 16.1861C52.4661 8.27528 45.8134 2.12977 37.7774 2.12977C29.0839 2.12977 22.0119 9.31926 22.0119 18.1569C22.0119 26.9946 29.084 34.184 37.7774 34.184C43.3132 34.184 48.3438 31.3141 51.2373 26.5077C51.5391 26.0058 52.1843 25.8478 52.6776 26.1549C53.1713 26.4616 53.3267 27.1175 53.0247 27.619C49.7484 33.0633 44.0485 36.313 37.7784 36.313C27.9305 36.3143 19.9178 28.1686 19.9178 18.1569L19.9169 18.1578ZM37.7783 7.25441C38.3574 7.25441 38.8261 7.73088 38.8261 8.3196V18.1495C38.8261 18.4322 38.716 18.7035 38.5191 18.9027C38.3222 19.1018 38.0566 19.2147 37.7783 19.2147H37.7773L28.8508 19.2064C28.2717 19.2054 27.803 18.7289 27.804 18.1402C27.805 17.5524 28.2737 17.076 28.8518 17.076H28.8528L36.7304 17.0833L36.7308 8.31921C36.7308 7.73081 37.1995 7.25441 37.7783 7.25441Z" fill="#CFC796"/>
</svg>
