<svg width="30" height="24" viewBox="0 0 30 24" fill="none" xmlns="http://www.w3.org/2000/svg">
<path d="M25.3838 1.99455C23.4837 1.06479 21.4265 0.389967 19.2836 6.89792e-05C19.2648 -0.00056176 19.2461 0.00313939 19.2289 0.0109123C19.2116 0.0186852 19.1961 0.030341 19.1836 0.0450575C18.9265 0.539928 18.6265 1.18476 18.4265 1.67963C16.1535 1.31972 13.842 1.31972 11.5691 1.67963C11.3691 1.16976 11.0691 0.539928 10.7977 0.0450575C10.7834 0.0150654 10.7405 6.89792e-05 10.6977 6.89792e-05C8.55475 0.389967 6.51184 1.06479 4.5975 1.99455C4.58322 1.99455 4.56893 2.00954 4.55465 2.02454C0.668824 8.12794 -0.402634 14.0664 0.125952 19.9448C0.125952 19.9748 0.140238 20.0048 0.16881 20.0198C2.74031 21.9993 5.21181 23.199 7.65473 23.9938C7.69759 24.0088 7.74045 23.9938 7.75473 23.9638C8.32618 23.139 8.84048 22.2692 9.28335 21.3545C9.31192 21.2945 9.28335 21.2345 9.2262 21.2195C8.41189 20.8896 7.64044 20.4997 6.88328 20.0498C6.82614 20.0198 6.82614 19.9299 6.86899 19.8849C7.02614 19.7649 7.18329 19.6299 7.34044 19.51C7.36901 19.48 7.41187 19.48 7.44044 19.495C12.3549 21.8493 17.655 21.8493 22.5123 19.495C22.5409 19.48 22.5837 19.48 22.6123 19.51C22.7694 19.6449 22.9266 19.7649 23.0837 19.8999C23.1409 19.9448 23.1409 20.0348 23.0694 20.0648C22.3266 20.5297 21.5408 20.9046 20.7265 21.2345C20.6694 21.2495 20.6551 21.3245 20.6694 21.3695C21.1265 22.2842 21.6408 23.154 22.198 23.9788C22.2408 23.9938 22.2837 24.0088 22.3266 23.9938C24.7838 23.199 27.2553 21.9993 29.8268 20.0198C29.8553 20.0048 29.8696 19.9748 29.8696 19.9448C30.4982 13.1516 28.8267 7.25817 25.4409 2.02454C25.4266 2.00954 25.4124 1.99455 25.3838 1.99455ZM10.0262 16.3608C8.55476 16.3608 7.32615 14.9362 7.32615 13.1816C7.32615 11.4271 8.52618 10.0024 10.0262 10.0024C11.5406 10.0024 12.7406 11.4421 12.7263 13.1816C12.7263 14.9362 11.5263 16.3608 10.0262 16.3608ZM19.9836 16.3608C18.5122 16.3608 17.2836 14.9362 17.2836 13.1816C17.2836 11.4271 18.4836 10.0024 19.9836 10.0024C21.498 10.0024 22.698 11.4421 22.6837 13.1816C22.6837 14.9362 21.498 16.3608 19.9836 16.3608Z" fill="#CFC796"/>
</svg>
