<svg width="85" height="58" viewBox="0 0 85 58" fill="none" xmlns="http://www.w3.org/2000/svg">
<path d="M13.7714 25.1079C13.5025 25.0727 13.4089 24.8072 13.5658 24.5211C13.7159 24.2319 14.0521 24.0271 14.3203 24.0641C18.5254 24.6268 22.8846 25.2149 27.425 25.8239C27.7268 25.8659 27.8475 26.1464 27.7067 26.4556C27.5592 26.7647 27.2032 26.9845 26.9007 26.941C22.3494 26.3054 17.9797 25.6951 13.7714 25.1079ZM26.7884 48.981C26.4443 48.981 26.1654 48.7016 26.1654 48.357C26.1654 48.0123 26.4443 47.7329 26.7884 47.7329H42.7222C43.0663 47.7329 43.3453 48.0123 43.3453 48.357C43.3453 48.7016 43.0663 48.981 42.7222 48.981H26.7884ZM26.7884 41.8812C26.4443 41.8812 26.1654 41.6018 26.1654 41.2572C26.1654 40.9125 26.4443 40.6331 26.7884 40.6331H52.7658C44.2017 39.0996 36.1987 37.6669 28.7066 36.3251C23.9882 35.4801 19.4527 34.6679 15.0889 33.8866C14.9556 33.9375 14.8182 33.9802 14.6773 34.0139V34.5487C15.2872 34.6945 15.8322 35.0079 16.2611 35.4375C16.8658 36.0431 17.2399 36.8798 17.2399 37.8039C17.2399 38.728 16.8658 39.5647 16.2611 40.1703C15.8322 40.5999 15.2872 40.9133 14.6773 41.0592V41.5939C15.2872 41.7397 15.8322 42.0531 16.2611 42.4827C16.8658 43.0884 17.2399 43.925 17.2399 44.8491C17.2399 45.7732 16.8658 46.6099 16.2611 47.2155C15.8322 47.6451 15.2872 47.9585 14.6773 48.1043V48.6391C15.2872 48.785 15.8322 49.0983 16.2611 49.5279C16.8658 50.1336 17.2399 50.9703 17.2399 51.8944C17.2399 52.8184 16.8658 53.6551 16.2611 54.2608C15.8322 54.6904 15.2872 55.0037 14.6773 55.1496V56.2853C14.6773 56.3687 14.7484 56.44 14.8317 56.44H83.288C83.3713 56.44 83.4424 56.3688 83.4424 56.2853V55.1384C81.9607 54.7683 80.9122 53.4294 80.9122 51.8944C80.9122 50.3593 81.9607 49.0204 83.4424 48.6503V48.0932C81.9607 47.723 80.9122 46.3842 80.9122 44.8491C80.9122 43.3141 81.9607 41.9752 83.4424 41.6051V41.048C81.9607 40.6778 80.9122 39.339 80.9122 37.8039C80.9122 36.2689 81.9606 34.9299 83.4424 34.5598V34.0027C81.9607 33.6326 80.9122 32.2937 80.9122 30.7587C80.9122 29.2237 81.9607 27.8847 83.4424 27.5146V26.9575C81.9607 26.5874 80.9122 25.2485 80.9122 23.7134C80.9122 22.1784 81.9607 20.8395 83.4424 20.4694V18.5844C83.4424 18.5009 83.3713 18.4298 83.288 18.4298H75.2681C75.1464 18.8377 75.0242 19.2467 74.9016 19.6568L73.9746 19.5815C73.4016 19.5353 72.8169 19.6853 72.3399 19.9636C71.8678 20.2494 71.5038 20.658 71.3484 21.1426C71.1979 21.6313 71.2997 22.0959 71.5704 22.4539C71.8536 22.8212 72.3201 23.0753 72.8999 23.142C73.209 23.1756 73.5181 23.2133 73.8272 23.2511C73.4769 24.4217 73.1248 25.6005 72.7695 26.7876C72.4491 26.7579 72.1354 26.724 71.823 26.686C71.2422 26.6277 70.6402 26.7708 70.1531 27.0588C69.6706 27.3501 69.2885 27.7805 69.1249 28.2896C68.966 28.8067 69.0627 29.3026 69.34 29.6878C69.6232 30.0825 70.0997 30.3685 70.6873 30.4519C71.0005 30.4945 71.3137 30.5412 71.635 30.5838C71.2646 31.8204 70.8907 33.0734 70.5142 34.3347C70.1895 34.2916 69.8715 34.2526 69.5482 34.2054C68.9986 34.1279 68.4321 34.2483 67.9554 34.4985C67.9818 34.5496 67.997 34.6082 67.997 34.6724L67.9924 36.1985C67.9916 36.3203 67.9344 36.4308 67.835 36.5038C67.5767 36.6899 67.2136 36.5102 67.2136 36.1962L67.217 35.0813C67.0201 35.3078 66.8689 35.5679 66.781 35.8519C66.6072 36.3935 66.6995 36.921 66.9807 37.3463C67.2637 37.7689 67.7494 38.0918 68.345 38.1929C68.6623 38.2492 68.9866 38.3055 69.3121 38.3535C69.0166 39.3427 68.7207 40.332 68.4217 41.3336C68.33 41.6408 68.1634 41.9213 67.9462 42.1601C67.9638 42.2034 67.9736 42.2513 67.9736 42.3028L67.9689 43.8289C67.9681 43.9507 67.9109 44.0612 67.8116 44.1342C67.5533 44.3203 67.1901 44.1406 67.1901 43.8266L67.1935 42.724C66.7286 42.9521 66.1852 43.0366 65.6566 42.9417C62.5855 42.3917 59.5809 41.8536 56.6406 41.327C56.606 41.6388 56.342 41.8812 56.0215 41.8812H26.7884ZM75.7339 16.8696H83.288C84.2311 16.8696 85 17.6397 85 18.5844V21.9147L84.2303 21.9242C83.2521 21.9363 82.4698 22.7346 82.4698 23.7134C82.4698 24.6923 83.252 25.4905 84.2303 25.5027L85 25.5122V28.9599L84.2303 28.9694C83.252 28.9815 82.4698 29.7797 82.4698 30.7587C82.4698 31.7376 83.252 32.5358 84.2303 32.5479L85 32.5574V36.0051L84.2303 36.0147C83.252 36.0268 82.4698 36.825 82.4698 37.8039C82.4698 38.7828 83.252 39.581 84.2303 39.5931L85 39.6026V43.0504L84.2303 43.0599C83.252 43.072 82.4698 43.8702 82.4698 44.8491C82.4698 45.828 83.252 46.6262 84.2303 46.6383L85 46.6478V50.0956L84.2303 50.1051C83.252 50.1172 82.4698 50.9155 82.4698 51.8944C82.4698 52.8733 83.2521 53.6715 84.2303 53.6836L85 53.6931V56.2853C85 57.23 84.2312 58.0001 83.288 58.0001H14.8317C13.8885 58.0001 13.1197 57.23 13.1197 56.2853V53.6809H13.8985C14.8838 53.6809 15.6822 52.8812 15.6822 51.8944C15.6822 50.9075 14.8838 50.1077 13.8985 50.1077H13.1197V46.6357H13.8985C14.8838 46.6357 15.6822 45.836 15.6822 44.8491C15.6822 43.8623 14.8838 43.0625 13.8985 43.0625H13.1197V39.5905H13.8985C14.8838 39.5905 15.6822 38.7908 15.6822 37.8039C15.6822 36.8171 14.8838 36.0173 13.8985 36.0173H13.1197V33.5341C8.79709 32.7603 4.6454 32.0173 0.653863 31.3033C0.318758 31.2423 0.101474 31.0301 0.0254643 30.7266C-0.0454037 30.4297 0.0318341 30.0445 0.254864 29.6553C0.667386 28.9291 1.07658 28.2151 1.48595 27.4981L2.03537 27.5878C2.38131 27.6413 2.79202 27.5294 3.17363 27.2981C3.55973 27.0694 3.90841 26.7245 4.13568 26.3194C4.3691 25.9173 4.42543 25.5304 4.34278 25.2361C4.26226 24.9364 4.0354 24.7323 3.68506 24.6839L3.13935 24.6023C3.6669 23.6768 4.19228 22.7606 4.71378 21.8474C4.8945 21.869 5.07518 21.8936 5.26257 21.9183C5.60389 21.9618 6.00671 21.847 6.38486 21.6214C6.7542 21.3985 7.09955 21.0618 7.31687 20.6753C7.53348 20.2887 7.58863 19.9244 7.49752 19.6428C7.41316 19.365 7.18697 19.179 6.84131 19.1373C6.6552 19.1152 6.47574 19.0962 6.29627 19.0741C6.8013 18.1916 7.30281 17.3121 7.80268 16.4388C7.98096 16.4553 8.16583 16.4749 8.34411 16.4946C8.68745 16.5285 9.09035 16.4082 9.45319 16.1856C9.82061 15.9656 10.155 15.6404 10.3633 15.2693C10.5712 14.8982 10.6127 14.5564 10.5257 14.2933C10.4324 14.031 10.2067 13.8566 9.85915 13.8242C9.68209 13.8101 9.49848 13.793 9.32142 13.7759C9.80572 12.927 10.2863 12.0874 10.7655 11.2508C10.9413 11.2625 11.1237 11.2773 11.3061 11.2921C11.6448 11.3169 12.0403 11.1944 12.394 10.9781C12.7522 10.7613 13.0773 10.4479 13.2835 10.0922C13.4825 9.73655 13.519 9.40778 13.4227 9.15998C13.3248 8.91899 13.0951 8.75576 12.7587 8.73235C12.5775 8.72303 12.3964 8.71061 12.2217 8.6982C12.6862 7.88615 13.1476 7.07716 13.6076 6.27122C13.7811 6.28138 13.961 6.29154 14.141 6.30166C14.4815 6.31773 14.8691 6.19645 15.2196 5.98366C15.5715 5.76728 15.887 5.46558 16.0786 5.1254C16.27 4.78521 16.3005 4.47238 16.2022 4.2396C16.1026 4.01044 15.8739 3.86124 15.5357 3.8464L15.0059 3.8228C15.4361 3.07202 15.8634 2.32129 16.2881 1.5797C16.4663 1.26714 16.756 0.985923 17.0812 0.786452C17.414 0.583488 17.7838 0.462233 18.1062 0.470894C38.1406 1.00011 58.1751 1.52939 78.2096 2.05925C78.7468 2.07329 79.1774 2.25439 79.4447 2.53106C79.7135 2.80444 79.8245 3.18176 79.7034 3.58571C79.4156 4.55022 79.1256 5.52299 78.8331 6.49987C78.532 6.49094 78.2374 6.48199 77.9438 6.46891C77.3927 6.45282 76.8279 6.6102 76.3825 6.8797C75.9378 7.14845 75.5871 7.52871 75.4531 7.96039C75.3178 8.40022 75.4204 8.80748 75.6913 9.11277C75.9679 9.42313 76.4202 9.63229 76.9782 9.66803C77.2727 9.68913 77.5672 9.70614 77.8681 9.72728C77.5538 10.7825 77.238 11.8376 76.9195 12.9011C76.6143 12.8843 76.3155 12.8716 76.0115 12.8507C75.4528 12.8199 74.8718 12.9719 74.4172 13.2482C73.9566 13.5236 73.5956 13.9182 73.4549 14.3744C73.3123 14.8386 73.411 15.2723 73.6889 15.6037C73.966 15.9402 74.4284 16.1756 74.994 16.2223C75.2924 16.2515 75.5974 16.2765 75.9024 16.3057L75.7339 16.8696ZM16.8461 19.2832C16.5808 19.2524 16.4853 19.0057 16.636 18.7293C16.7789 18.4561 17.113 18.255 17.3777 18.2845C21.1818 18.6865 25.1316 19.109 29.2137 19.5431C33.4411 19.9926 37.8344 20.462 42.3928 20.9471C42.7236 20.9841 42.8865 21.2646 42.7609 21.573C42.6275 21.8851 42.253 22.1076 41.9214 22.0724C37.3453 21.5612 32.9417 21.0723 28.7039 20.5998C24.6188 20.1443 20.6595 19.7038 16.8461 19.2832ZM19.7937 13.7163C19.5255 13.6926 19.4274 13.4614 19.5696 13.2011C19.707 12.9375 20.0335 12.7435 20.2945 12.7626C28.54 13.4237 36.7852 14.0881 45.0301 14.7555C45.3564 14.7835 45.5203 15.0421 45.3935 15.3396C45.2681 15.6335 44.9026 15.8489 44.5755 15.823C40.0679 15.4375 35.7173 15.0658 31.5304 14.7096C27.4874 14.3656 23.5685 14.0364 19.7937 13.7163ZM22.5467 8.51333C22.2821 8.4964 22.1824 8.2803 22.321 8.0264C22.4523 7.7757 22.771 7.58267 23.0286 7.59839C26.7638 7.81119 30.6408 8.029 34.6272 8.25701C38.7616 8.49344 43.0508 8.7394 47.488 8.99086C47.81 9.01043 47.9752 9.25126 47.8544 9.53428C47.7328 9.81729 47.3749 10.0324 47.0521 10.0113C42.6042 9.73933 38.3048 9.47342 34.1668 9.22164C30.1709 8.97849 26.2845 8.7399 22.5467 8.51333ZM47.9744 36.6872C47.8528 37.0175 48.1728 37.2738 48.5231 37.1237C48.6673 37.0622 48.7711 36.9547 48.8164 36.829C49.0156 36.2994 49.2164 35.7622 49.4225 35.2339C49.5485 34.9024 49.222 34.656 48.8674 34.8049C48.7377 34.8646 48.6347 34.9685 48.5896 35.0938C48.376 35.6241 48.1744 36.1556 47.9744 36.6872ZM61.413 3.67881C61.511 3.42721 61.196 3.27007 60.8801 3.41342C60.758 3.46699 60.6681 3.55237 60.6317 3.65112C60.4738 4.06517 60.3159 4.48302 60.1586 4.8933C60.0585 5.1516 60.3613 5.31125 60.678 5.16993C60.8021 5.11701 60.8989 5.02794 60.9345 4.92882C61.0923 4.50952 61.2495 4.09404 61.413 3.67881ZM60.2107 6.81528C60.3112 6.55611 60.0013 6.39005 59.6769 6.52982C59.565 6.5861 59.4674 6.67448 59.4301 6.77706C59.2618 7.20212 59.0997 7.62755 58.9385 8.04916C58.8358 8.31125 59.1462 8.4836 59.4676 8.33831C59.5917 8.28299 59.6836 8.19472 59.7213 8.08799C59.8819 7.6649 60.0432 7.23801 60.2107 6.81528ZM58.984 10.0314C59.0819 9.76082 58.776 9.58999 58.4545 9.73366C58.3284 9.78819 58.236 9.87954 58.1925 9.98208C58.02 10.4184 57.8537 10.8552 57.6883 11.2882C57.5894 11.5579 57.901 11.7397 58.2246 11.5944C58.3514 11.5367 58.451 11.4455 58.4886 11.3426C58.6532 10.9081 58.8187 10.4697 58.984 10.0314ZM57.7266 13.3315C57.8324 13.0609 57.5137 12.8729 57.1874 13.0204C57.0612 13.0734 56.9674 13.1677 56.928 13.2741C56.7577 13.7222 56.5869 14.1704 56.4173 14.6186C56.3091 14.8958 56.6218 15.0863 56.949 14.941C57.0772 14.8849 57.1718 14.7907 57.2117 14.6801C57.3806 14.2342 57.5506 13.7807 57.7266 13.3315ZM56.4347 16.7299C56.5433 16.4517 56.2299 16.2549 55.9014 16.3986C55.7725 16.4577 55.6707 16.5511 55.6316 16.6574C55.4503 17.1201 55.2749 17.5796 55.1007 18.0391C54.9884 18.3278 55.3101 18.5245 55.6409 18.3794C55.764 18.3202 55.8652 18.2269 55.9062 18.1164C56.0796 17.6552 56.2542 17.1941 56.4347 16.7299ZM55.103 20.2193C55.2146 19.9296 54.9001 19.7274 54.5665 19.8745C54.4375 19.9283 54.3408 20.0246 54.2926 20.1385C54.1066 20.6125 53.9264 21.0872 53.7475 21.5581C53.6402 21.8505 53.955 22.0643 54.2962 21.9195C54.4273 21.8588 54.5248 21.7626 54.567 21.6445C54.745 21.1719 54.9244 20.6956 55.103 20.2193ZM53.7471 23.8119C53.8617 23.5147 53.5395 23.2982 53.1969 23.4451C53.0717 23.5057 52.9735 23.605 52.9255 23.7142C52.7413 24.2002 52.556 24.6901 52.3709 25.18C52.2538 25.48 52.5697 25.7026 52.9095 25.5506C53.0406 25.4991 53.1463 25.3962 53.1896 25.2781C53.3726 24.7904 53.557 24.2988 53.7471 23.8119ZM52.3403 27.5101C52.4596 27.1976 52.1416 26.9762 51.8018 27.1226C51.6685 27.1807 51.5635 27.2789 51.5195 27.4004C51.3234 27.9007 51.133 28.4019 50.9441 28.8993C50.8239 29.2107 51.1474 29.4442 51.4963 29.2964C51.6238 29.238 51.7244 29.1361 51.7741 29.019C51.9622 28.516 52.1518 28.0131 52.3403 27.5101ZM50.9093 31.3156C51.0304 30.9955 50.7063 30.7593 50.3558 30.9051C50.2209 30.9653 50.1128 31.0664 50.0675 31.1917C49.8729 31.7081 49.677 32.2245 49.4826 32.7409C49.366 33.0598 49.6768 33.306 50.0314 33.1513C50.1656 33.0957 50.2746 32.9909 50.3202 32.8652C50.5137 32.3508 50.7088 31.8288 50.9093 31.3156ZM77.8028 3.3961C65.5735 3.01303 54.3586 2.66233 44.0504 2.34104C34.5282 2.04425 25.7097 1.77041 17.5188 1.51303C17.4566 1.51118 17.3832 1.56133 17.3534 1.61433C17.1169 2.03031 16.8793 2.45251 16.6411 2.87465C17.0064 2.98678 17.2676 3.21532 17.4037 3.51887C17.5942 3.94971 17.5344 4.53974 17.1801 5.17731C16.8162 5.818 16.2263 6.3941 15.5655 6.79472C15.0882 7.07705 14.5785 7.27635 14.1012 7.35517C14.0296 7.48149 13.9592 7.60784 13.8887 7.73109C14.2508 7.85694 14.5123 8.10439 14.6463 8.42488C14.832 8.88506 14.7565 9.50355 14.3871 10.1691C14.014 10.8409 13.4089 11.4289 12.7238 11.8402C12.2423 12.1301 11.7282 12.3287 11.2425 12.4026C11.1676 12.5321 11.0944 12.6615 11.0147 12.7909C11.3868 12.934 11.6434 13.1977 11.7719 13.5416C11.9474 14.0316 11.867 14.682 11.4753 15.3755C11.0867 16.0784 10.4626 16.6872 9.76782 17.1057C9.28048 17.3998 8.74939 17.5972 8.25543 17.6627C8.17761 17.8014 8.10112 17.937 8.02445 18.0726C8.39302 18.2303 8.64918 18.5138 8.77474 18.8815C8.94434 19.4019 8.84823 20.0843 8.44403 20.812C8.03098 21.5429 7.39509 22.1724 6.68424 22.5975C6.18355 22.9016 5.6475 23.0974 5.14464 23.1571C5.06307 23.3019 4.9833 23.4406 4.90355 23.5823C5.27547 23.7583 5.52443 24.0619 5.64511 24.457C5.80283 25.0081 5.6933 25.7323 5.27138 26.4912C4.84722 27.2563 4.18345 27.906 3.46194 28.3403C2.94754 28.6478 2.4001 28.8446 1.8973 28.8917C1.71733 29.2091 1.53828 29.5265 1.3592 29.8439C1.32831 29.8977 1.32762 29.9811 1.40307 29.9929C23.0055 33.7028 44.6064 37.4215 66.2075 41.1388C66.2621 41.1482 66.3156 41.1355 66.3598 41.109C66.4039 41.0825 66.4441 41.0462 66.4585 40.9972C66.5992 40.5594 66.733 40.1216 66.8658 39.6838C66.1637 39.3861 65.6146 38.9175 65.2478 38.3523C64.7317 37.5605 64.5801 36.5665 64.9017 35.564C65.2144 34.5695 65.9421 33.7336 66.8658 33.1826C67.5204 32.7893 68.2775 32.5406 69.0667 32.479C69.1275 32.2826 69.1883 32.0821 69.2558 31.8816C68.561 31.6145 68.0201 31.1941 67.6524 30.6688C67.1418 29.935 66.9861 29.0109 67.2841 28.0609C67.5867 27.1189 68.2857 26.3187 69.1894 25.7833C69.822 25.4037 70.5581 25.1526 71.3349 25.0777C71.3926 24.8895 71.4502 24.7013 71.5074 24.5131C70.8328 24.2795 70.2947 23.8981 69.9335 23.4076C69.4211 22.7348 69.256 21.8676 69.5454 20.966C69.8253 20.0767 70.5051 19.3088 71.3817 18.7902C72.001 18.4169 72.7233 18.1643 73.481 18.0815C73.5354 17.9015 73.5898 17.7215 73.6442 17.5456C72.977 17.3402 72.4492 16.9886 72.0868 16.5363C71.5809 15.9112 71.4075 15.1042 71.6826 14.2472C71.9482 13.4023 72.6085 12.6674 73.4672 12.1585C74.0662 11.7963 74.7686 11.5473 75.5135 11.4536C75.5653 11.2858 75.6171 11.114 75.6695 10.9421C75.0159 10.764 74.4912 10.4413 74.136 10.0264C73.6299 9.44387 73.4565 8.68457 73.7111 7.87603C73.9695 7.07558 74.6063 6.37016 75.4399 5.87194C76.0269 5.5176 76.7167 5.2648 77.4434 5.16106C77.6098 4.61691 77.7756 4.07276 77.9404 3.53271C77.9512 3.49588 77.9355 3.46237 77.9114 3.4368C77.8872 3.41123 77.8535 3.39765 77.8028 3.3961ZM67.155 55.2722C67.155 55.5862 67.5181 55.7659 67.7764 55.5798C67.8758 55.5068 67.933 55.3963 67.9338 55.2745L67.9385 53.7484C67.9385 53.4345 67.5753 53.2547 67.317 53.4409C67.2176 53.5139 67.1604 53.6244 67.1597 53.7461L67.155 55.2722ZM67.9619 46.118C67.9619 45.8041 67.5987 45.6243 67.3404 45.8105C67.2411 45.8835 67.1838 45.9939 67.1831 46.1157L67.1784 47.6418C67.1784 47.9558 67.5415 48.1355 67.7999 47.9493C67.8992 47.8764 67.9564 47.7659 67.9572 47.6441L67.9619 46.118ZM67.9502 49.9332C67.9502 49.6192 67.587 49.4395 67.3287 49.6257C67.2294 49.6987 67.1721 49.8092 67.1714 49.9309L67.1667 51.457C67.1667 51.771 67.5298 51.9507 67.7881 51.7646C67.8875 51.6916 67.9447 51.5811 67.9455 51.4593L67.9502 49.9332Z" fill="#CFC796"/>
</svg>
