<svg width="28" height="21" viewBox="0 0 28 21" fill="none" xmlns="http://www.w3.org/2000/svg">
<path d="M4 1C4 0.447716 4.44772 0 5 0H23C23.5523 0 24 0.447716 24 1V2.5C24 3.05228 23.5523 3.5 23 3.5H5C4.44772 3.5 4 3.05228 4 2.5V1ZM0 9.75C0 9.19771 0.447715 8.75 1 8.75H27C27.5523 8.75 28 9.19772 28 9.75V11.25C28 11.8023 27.5523 12.25 27 12.25H1C0.447715 12.25 0 11.8023 0 11.25V9.75ZM5 21C4.44772 21 4 20.5523 4 20V18.5C4 17.9477 4.44772 17.5 5 17.5H23C23.5523 17.5 24 17.9477 24 18.5V20C24 20.5523 23.5523 21 23 21H5Z" fill="#CFC796"/>
</svg>
