<svg width="63" height="79" viewBox="0 0 63 79" fill="none" xmlns="http://www.w3.org/2000/svg">
<path d="M51.0425 47.5313V43.9495C51.0425 42.921 50.8235 41.9056 50.3985 40.9696L45.6163 30.4157H46.6918C47.7024 30.4157 48.52 29.5965 48.52 28.5875V17.4464C48.52 16.4358 47.6181 15.6636 46.6188 15.8193L40.9526 16.7051L34.3114 16.1584C30.1505 15.8161 26.585 19.101 26.585 23.2749C26.585 27.2184 29.7823 30.4157 33.7258 30.4157H33.9529L28.4699 41.8439C27.2939 44.295 27.4334 47.1744 28.8398 49.5006C29.6022 50.761 30.9665 51.5315 32.4394 51.5315H47.0406C49.2516 51.5299 51.0425 49.739 51.0425 47.5313ZM45.8483 48.5905C45.8483 48.9036 45.5936 49.1583 45.2805 49.1583C44.9675 49.1583 44.7128 48.9036 44.7128 48.5905V46.167C44.7128 44.5043 44.4046 42.8772 43.7979 41.3297L39.5981 30.6217C39.4829 30.3297 39.6273 30.0004 39.9192 29.8852C40.2112 29.7701 40.5405 29.9144 40.6557 30.2064L44.8555 40.9144C45.5141 42.595 45.8483 44.3615 45.8483 46.1654V48.5905Z" fill="#CFC796"/>
<path d="M4.90734 22.5435C5.18311 22.5435 5.42481 22.3423 5.46861 22.0617C5.51565 21.7519 5.30315 21.4615 4.99331 21.4145L0.817832 20.7753C0.506374 20.7283 0.217627 20.9408 0.170584 21.2506C0.12354 21.5605 0.336046 21.8508 0.645882 21.8979L4.82136 22.537C4.85056 22.5419 4.87814 22.5435 4.90734 22.5435Z" fill="#CFC796"/>
<path d="M11.9868 11.8583C12.0907 12.0464 12.2837 12.1519 12.4848 12.1519C12.5773 12.1519 12.6714 12.1292 12.759 12.0821C13.0331 11.9312 13.1337 11.5857 12.9829 11.3116L10.9454 7.61139C10.7945 7.33725 10.449 7.23667 10.1749 7.38754C9.90072 7.5384 9.80015 7.88392 9.95101 8.15807L11.9868 11.8583Z" fill="#CFC796"/>
<path d="M62.8083 33.0891C62.7093 32.7906 62.3881 32.6301 62.0912 32.7274L58.0796 34.0495C57.7811 34.1468 57.6205 34.468 57.7179 34.7665C57.7974 35.0049 58.018 35.1574 58.2564 35.1574C58.3148 35.1574 58.3748 35.1477 58.4349 35.1282L62.4465 33.8061C62.7434 33.7088 62.9056 33.3876 62.8083 33.0891Z" fill="#CFC796"/>
<path d="M60.0191 49.1908L56.5265 46.8143C56.267 46.6375 55.9133 46.7056 55.7381 46.9636C55.5613 47.2231 55.6295 47.5767 55.8874 47.7519L59.3799 50.1284C59.4773 50.1949 59.5892 50.2274 59.6995 50.2274C59.8812 50.2274 60.0596 50.1398 60.1699 49.9792C60.3451 49.7213 60.2786 49.3676 60.0191 49.1908Z" fill="#CFC796"/>
<path d="M51.9036 53.4264C51.8014 53.2561 51.6165 53.1523 51.4169 53.1523C51.2174 53.1523 51.0341 53.2561 50.9303 53.4264L44.1155 64.733C44.0068 64.913 44.0068 65.1385 44.1155 65.3186L47.952 71.6905V77.8645H46.3979L41.2264 68.3245C41.0091 67.9238 40.5905 67.6934 40.1363 67.7259C39.6805 67.7583 39.2993 68.0438 39.1403 68.4705L37.3835 73.1829C37.317 73.3597 37.1791 73.4278 37.1029 73.4522C37.0266 73.4765 36.8741 73.5041 36.7168 73.4019L28.3691 67.9546C27.2968 67.2538 25.8466 67.4501 24.9982 68.4088L16.631 77.8629H3.31619V75.9163C3.31619 68.8419 9.07167 63.0865 16.1444 63.0865H16.146H16.1476H24.0087C24.3217 63.0865 24.5764 62.8318 24.5764 62.5187C24.5764 62.2056 24.3217 61.9509 24.0087 61.9509H18.3554C20.8779 60.1584 22.4222 57.2466 22.4222 54.0477V44.0064C22.8699 45.0219 23.4458 45.9855 24.1449 46.8809C24.2569 47.0237 24.4239 47.0999 24.5926 47.0999C24.7143 47.0999 24.8376 47.061 24.9414 46.9799C25.188 46.7868 25.2318 46.43 25.0404 46.1834C23.3273 43.9886 22.4222 41.3526 22.4222 38.5624V23.8412C22.4222 17.0653 27.9343 11.5532 34.7102 11.5532H45.3922C46.7175 11.5532 47.9471 12.0836 48.8572 13.0472C49.7672 14.0108 50.2246 15.2696 50.1484 16.5933L49.141 34.0171C49.1232 34.3301 49.3616 34.5978 49.6747 34.6173C49.9927 34.6351 50.2555 34.3967 50.2749 34.0836L50.3771 32.3073L55.8796 26.7838C57.9868 24.6685 58.3631 21.4176 56.7961 18.8773C55.6297 16.9858 53.3295 16.1748 51.2742 16.8188L51.2839 16.6614C51.378 15.023 50.8103 13.4641 49.6845 12.2718C48.5587 11.0795 47.0354 10.4209 45.3938 10.4209H34.7118C29.0715 10.4209 24.2358 13.9199 22.2518 18.8595L20.6345 16.9242C19.5963 15.6816 18.0731 15.0117 16.4542 15.0863C14.8369 15.1609 13.3818 15.9704 12.462 17.3038C9.85193 21.0948 9.51614 26.0019 11.586 30.1125C12.7281 32.3803 15.0137 33.7883 17.5508 33.7883H18.5468C18.8599 33.7883 19.1146 33.5337 19.1146 33.2206C19.1146 32.9075 18.8599 32.6528 18.5468 32.6528H17.5508C15.4436 32.6528 13.5473 31.4832 12.5999 29.6015C10.7166 25.8608 11.0231 21.3965 13.398 17.9478C14.1134 16.908 15.2473 16.2786 16.5077 16.2202C17.7682 16.1602 18.9556 16.6825 19.7634 17.6509L21.6873 19.9528C21.7279 20.0031 21.7782 20.0404 21.8301 20.0728C21.6111 20.8207 21.4537 21.5944 21.3678 22.3909L18.7269 20.725C17.5524 19.9852 16.0568 20.0144 14.9131 20.8028C13.8441 21.5393 13.2812 22.7965 13.4418 24.0845L13.6722 25.9321C13.7078 26.2193 13.9528 26.4302 14.2351 26.4302C14.2578 26.4302 14.2821 26.4285 14.3064 26.4253C14.6179 26.3864 14.8385 26.1025 14.7996 25.791L14.5692 23.9434C14.4605 23.0787 14.8401 22.2336 15.5587 21.7372C16.326 21.2084 17.3334 21.1873 18.1218 21.6853L18.8145 22.1217L18.5403 22.3796C17.6011 23.2637 17.3577 24.6328 17.9336 25.7878C18.0326 25.9873 18.2337 26.1025 18.4414 26.1025C18.5273 26.1025 18.6133 26.083 18.6944 26.0425C18.975 25.9029 19.0886 25.5607 18.9475 25.28C18.5971 24.5776 18.7447 23.7455 19.3157 23.2069L19.804 22.7478L21.2899 23.6854C21.2899 23.7373 21.2866 23.7892 21.2866 23.8428V54.0493C21.2866 57.5256 19.2232 60.6175 16.0227 61.9558C8.379 62.0223 2.18066 68.2596 2.18066 75.9179V78.4322C2.18066 78.7453 2.43535 79 2.74843 79H46.0605C46.0605 79 46.0605 79 46.0621 79H48.5214C48.8344 79 49.0891 78.7453 49.0891 78.4322V73.5771L50.9319 76.6365C51.0341 76.8068 51.219 76.9106 51.4186 76.9106C51.6181 76.9106 51.803 76.8068 51.9052 76.6365L58.72 65.3202C58.8287 65.1401 58.8287 64.9147 58.72 64.7346L51.9036 53.4264ZM50.9644 22.1557L52.0918 21.489C52.5152 21.2392 53.0424 21.2927 53.4057 21.6236C53.7659 21.9513 53.8713 22.4704 53.6653 22.9117L53.3376 23.6189C53.2062 23.9028 53.3295 24.2402 53.615 24.3732C53.6929 24.4089 53.774 24.4268 53.8535 24.4268C54.0676 24.4268 54.2736 24.3051 54.3693 24.0975L54.697 23.3886C55.1106 22.4948 54.8998 21.4468 54.1714 20.7834C53.4366 20.115 52.3692 20.0047 51.5143 20.5108L51.0438 20.7898L51.2012 18.0613C52.8639 17.3087 54.8592 17.8991 55.8293 19.4726C57.1189 21.5636 56.8091 24.2402 55.0749 25.9824L50.4761 30.5991L50.9644 22.1557ZM18.1461 77.8645L25.8482 69.1615C26.3268 68.6213 27.1427 68.511 27.7478 68.9052L36.0955 74.3525C36.501 74.6169 36.9974 74.6818 37.4565 74.5309C37.9156 74.3801 38.2773 74.0329 38.446 73.5787L40.2061 68.8598C40.2093 68.8582 40.2207 68.8565 40.2288 68.8647L45.1067 77.8645H18.1461ZM51.4169 75.2414L46.2487 66.6585L51.1282 69.5427C51.2174 69.5946 51.318 69.6222 51.4169 69.6222C51.5159 69.6222 51.6165 69.5963 51.7057 69.5427L56.5852 66.6585L51.4169 75.2414ZM51.4169 68.3942L45.3841 64.8287L51.4169 54.8199L57.4498 64.8287L51.4169 68.3942Z" fill="#CFC796"/>
<path d="M7.93277 55.3423C8.1323 55.3423 8.31722 55.2384 8.41942 55.0681L13.7645 46.1916C13.8732 46.0115 13.8732 45.786 13.7645 45.606L8.41942 36.7375C8.31722 36.5672 8.1323 36.4634 7.93277 36.4634C7.73324 36.4634 7.54993 36.5672 7.44612 36.7375L2.10105 45.606C1.99236 45.786 1.99236 46.0115 2.10105 46.1916L7.44612 55.0681C7.54831 55.2384 7.73324 55.3423 7.93277 55.3423ZM7.93277 38.1294L12.4959 45.7017L7.93277 48.3993L3.36959 45.7017L7.93277 38.1294ZM7.64402 49.5462C7.73324 49.5981 7.83382 49.6257 7.93277 49.6257C8.03172 49.6257 8.1323 49.5998 8.22151 49.5462L11.6313 47.5299L7.93115 53.673L4.23096 47.5299L7.64402 49.5462Z" fill="#CFC796"/>
<path d="M56.6993 14.7537C56.8015 14.924 56.9865 15.0278 57.186 15.0278C57.3855 15.0278 57.5705 14.924 57.6726 14.7537L61.8579 7.80429C61.9666 7.62423 61.9666 7.39874 61.8579 7.21868L57.6726 0.274148C57.5705 0.103819 57.3855 0 57.186 0C56.9865 0 56.8032 0.103819 56.6993 0.274148L52.5141 7.21868C52.4054 7.39874 52.4054 7.62423 52.5141 7.80429L56.6993 14.7537ZM57.1844 13.3602L54.6457 9.1442L56.8956 10.4744C56.9848 10.5263 57.0854 10.5539 57.1844 10.5539C57.2833 10.5539 57.3839 10.5279 57.4731 10.4744L59.7231 9.1442L57.1844 13.3602ZM57.1844 1.6676L60.5877 7.31439L57.1844 9.32589L53.7811 7.31439L57.1844 1.6676Z" fill="#CFC796"/>
<path d="M35.7217 62.5187C35.7217 62.8318 35.9763 63.0864 36.2894 63.0864H40.1178H40.1194C40.1194 63.0864 40.1194 63.0864 40.121 63.0864H40.9824C41.3441 63.0864 41.7059 63.114 42.0611 63.1692C42.0903 63.174 42.1195 63.1757 42.1487 63.1757C42.4245 63.1757 42.6662 62.9745 42.71 62.6955C42.7587 62.3857 42.5462 62.0953 42.2363 62.0483C41.8243 61.985 41.4025 61.9525 40.984 61.9525H40.2751L39.5922 61.5519C37.0016 60.0351 35.3924 57.2271 35.3924 54.2245C35.3924 53.9114 35.1377 53.6567 34.8246 53.6567C34.5115 53.6567 34.2568 53.9114 34.2568 54.2245C34.2568 57.2758 35.7249 60.1503 38.1452 61.9525H36.2927C35.9763 61.9509 35.7217 62.2056 35.7217 62.5187Z" fill="#CFC796"/>
</svg>
