<svg width="85" height="86" viewBox="0 0 85 86" fill="none" xmlns="http://www.w3.org/2000/svg">
<path d="M0.740285 51.8157C0.332333 51.8157 0.00292969 51.4863 0.00292969 51.0783V9.9562C0.00292969 7.89617 1.68035 6.21875 3.74038 6.21875H19.3921C19.8 6.21875 20.1294 6.54815 20.1294 6.95611C20.1294 7.36406 19.8 7.69346 19.3921 7.69346H3.73785C2.49119 7.69346 1.47764 8.70701 1.47764 9.95367V51.0758C1.47764 51.4837 1.14824 51.8157 0.740285 51.8157Z" fill="#CFC796"/>
<path d="M81.2636 70.5791H49.9551C49.5472 70.5791 49.2178 70.2497 49.2178 69.8417C49.2178 69.4338 49.5472 69.1044 49.9551 69.1044H81.261C82.5077 69.1044 83.5212 68.0908 83.5212 66.8442V9.95635C83.5212 8.70969 82.5077 7.69614 81.261 7.69614H65.8526C65.4446 7.69614 65.1152 7.36674 65.1152 6.95879C65.1152 6.55084 65.4446 6.22144 65.8526 6.22144H81.261C83.3211 6.22144 84.9985 7.89885 84.9985 9.95889V66.8416C85.001 68.9016 83.3236 70.5791 81.2636 70.5791Z" fill="#CFC796"/>
<path d="M59.769 7.69614H25.4756C25.0677 7.69614 24.7383 7.36674 24.7383 6.95879C24.7383 6.55084 25.0677 6.22144 25.4756 6.22144H59.769C60.1769 6.22144 60.5063 6.55084 60.5063 6.95879C60.5063 7.36674 60.1769 7.69614 59.769 7.69614Z" fill="#CFC796"/>
<path d="M84.2616 18.9337H0.740285C0.332333 18.9337 0.00292969 18.6043 0.00292969 18.1963C0.00292969 17.7884 0.332333 17.459 0.740285 17.459H84.2641C84.6721 17.459 85.0014 17.7884 85.0014 18.1963C85.0014 18.6043 84.6695 18.9337 84.2616 18.9337Z" fill="#CFC796"/>
<path d="M22.4344 14.7395C20.3491 14.7395 18.6539 13.0443 18.6539 10.959V3.7856C18.6539 2.51106 17.6176 1.47724 16.3456 1.47724C15.0736 1.47724 14.0372 2.51359 14.0372 3.7856V6.95799C14.0372 7.36595 13.7078 7.69535 13.2999 7.69535C12.8919 7.69535 12.5625 7.36595 12.5625 6.95799V3.7856C12.5625 1.69769 14.2602 0 16.3481 0C16.3709 0 16.3937 0 16.4165 0C16.4266 0 16.4368 0 16.4469 0H22.4395C24.5249 0 26.22 1.69516 26.22 3.78053V10.959C26.215 13.0443 24.5198 14.7395 22.4344 14.7395ZM19.3431 1.47724C19.8372 2.11578 20.1312 2.91901 20.1312 3.7856V10.959C20.1312 12.2284 21.165 13.2622 22.4344 13.2622C23.7039 13.2622 24.7377 12.2284 24.7377 10.959V3.78053C24.7377 2.51106 23.7039 1.47724 22.4344 1.47724H19.3431Z" fill="#CFC796"/>
<path d="M62.8124 14.7395C60.727 14.7395 59.0318 13.0443 59.0318 10.959V3.7856C59.0318 2.51106 57.9955 1.47724 56.7235 1.47724C55.449 1.47724 54.4151 2.51359 54.4151 3.7856V6.95799C54.4151 7.36595 54.0857 7.69535 53.6778 7.69535C53.2698 7.69535 52.9404 7.36595 52.9404 6.95799V3.7856C52.9404 1.69769 54.6381 0 56.726 0C56.7488 0 56.7716 0 56.7944 0C56.8046 0 56.8147 0 56.8248 0H62.8174C64.9028 0 66.598 1.69516 66.598 3.78053V10.959C66.5929 13.0443 64.8977 14.7395 62.8124 14.7395ZM59.7211 1.47724C60.2152 2.11578 60.5091 2.91901 60.5091 3.7856V10.959C60.5091 12.2284 61.5429 13.2622 62.8124 13.2622C64.0818 13.2622 65.1157 12.2284 65.1157 10.959V3.78053C65.1157 2.51106 64.0818 1.47724 62.8124 1.47724H59.7211Z" fill="#CFC796"/>
<path d="M66.7847 58.9886C66.392 58.9886 65.9992 58.8645 65.6648 58.6237C65.0718 58.193 64.7779 57.4784 64.9021 56.7538L65.2568 54.6608C65.2796 54.5189 65.234 54.3745 65.1301 54.2756L63.6073 52.7984C63.0802 52.2865 62.8952 51.5365 63.1208 50.8397C63.3463 50.1429 63.9367 49.6437 64.6613 49.5348L66.7619 49.2256C66.9038 49.2054 67.0254 49.1167 67.0888 48.9875L68.0263 47.082C68.3507 46.4232 69.0069 46.0152 69.7392 46.0127H69.7417C70.474 46.0127 71.1303 46.4207 71.4546 47.0744L72.3972 48.9773C72.4606 49.1065 72.5847 49.1952 72.7241 49.2155L74.8247 49.517C75.5494 49.6209 76.1423 50.1201 76.3703 50.8169C76.5984 51.5137 76.4134 52.2663 75.8889 52.7781L74.3711 54.263C74.2698 54.3643 74.2216 54.5062 74.247 54.6481L74.6093 56.7385C74.7335 57.4607 74.4446 58.1778 73.8517 58.6111C73.2588 59.0418 72.4885 59.1001 71.8373 58.7606L69.9571 57.7749C69.8304 57.709 69.6784 57.709 69.5517 57.7749L67.6741 58.7656C67.3954 58.9151 67.0888 58.9886 66.7847 58.9886ZM69.7417 47.4899C69.6607 47.4899 69.458 47.5153 69.3515 47.7332L68.414 49.6387C68.1353 50.2037 67.5981 50.5965 66.9773 50.6877L64.8767 50.9968C64.636 51.0323 64.5499 51.2173 64.5271 51.2933C64.5042 51.3693 64.4637 51.5695 64.6385 51.7392L66.1614 53.219C66.6124 53.6574 66.8202 54.2908 66.7138 54.9116L66.359 57.0046C66.3185 57.2453 66.468 57.3822 66.5339 57.4303C66.5998 57.4784 66.7771 57.5773 66.9925 57.4632L68.8701 56.4725C69.4275 56.1786 70.0914 56.1786 70.6489 56.47L72.529 57.4556C72.7444 57.5697 72.9217 57.4708 72.9876 57.4227C73.0535 57.3745 73.2005 57.2377 73.1599 56.997L72.7976 54.9066C72.6912 54.2858 72.8939 53.6523 73.3449 53.2139L74.8627 51.7291C75.0375 51.5593 74.997 51.3592 74.9716 51.2831C74.9463 51.2071 74.8627 51.0221 74.6194 50.9867L72.5189 50.6851C71.8955 50.5965 71.3558 50.2062 71.0771 49.6412L70.1345 47.7383C70.023 47.5153 69.8228 47.4899 69.7417 47.4899Z" fill="#CFC796"/>
<path d="M30.2339 36.4626C29.8412 36.4626 29.4484 36.3384 29.114 36.0977C28.521 35.667 28.2271 34.9524 28.3513 34.2277L28.706 32.1347C28.7288 31.9929 28.6832 31.8484 28.5793 31.7496L27.0565 30.2698C26.5294 29.758 26.3445 29.008 26.57 28.3111C26.7955 27.6143 27.3859 27.1152 28.1106 27.0062L30.2111 26.6971C30.353 26.6768 30.4747 26.5881 30.538 26.4589L31.4755 24.5534C31.7999 23.8946 32.4561 23.4867 33.1884 23.4841H33.191C33.9233 23.4841 34.5795 23.8921 34.9039 24.5484L35.8465 26.4513C35.9098 26.5805 36.034 26.6692 36.1733 26.6895L38.2739 26.991C38.9986 27.0949 39.5915 27.5941 39.8196 28.2909C40.0476 28.9877 39.8626 29.7402 39.3381 30.2521L37.8203 31.7369C37.719 31.8383 37.6708 31.9802 37.6962 32.1221L38.0585 34.2125C38.1827 34.9347 37.8938 35.6517 37.3009 36.085C36.708 36.5158 35.9377 36.5741 35.2865 36.2345L33.4063 35.2489C33.2797 35.183 33.1276 35.183 33.0009 35.2489L31.1233 36.2396C30.8446 36.3891 30.538 36.4626 30.2339 36.4626ZM33.191 24.9639C33.1099 24.9639 32.9072 24.9892 32.8007 25.2072L31.8632 27.1126C31.5845 27.6777 31.0473 28.0704 30.4265 28.1616L28.3259 28.4708C28.0852 28.5063 27.9991 28.6912 27.9763 28.7672C27.9509 28.8458 27.9129 29.0434 28.0878 29.2132L29.6106 30.693C30.0616 31.1313 30.2694 31.7648 30.163 32.3856L29.8083 34.4786C29.7677 34.7193 29.9172 34.8561 29.9831 34.9043C30.049 34.9524 30.2263 35.0512 30.4417 34.9372L32.3193 33.9465C32.8768 33.6525 33.5406 33.6525 34.0981 33.9439L35.9782 34.9296C36.1936 35.0436 36.371 34.9448 36.4368 34.8967C36.5027 34.8485 36.6497 34.7117 36.6091 34.471L36.2468 32.3805C36.1404 31.7597 36.3431 31.1263 36.7941 30.6879L38.3119 29.2031C38.4867 29.0333 38.4462 28.8331 38.4209 28.7571C38.3955 28.6811 38.3119 28.4961 38.0687 28.4606L35.9681 28.1591C35.3447 28.0704 34.805 27.6802 34.5263 27.1152L33.5812 25.2046C33.4748 24.9867 33.2746 24.9639 33.191 24.9639Z" fill="#CFC796"/>
<path d="M17.9064 35.4059C17.1691 35.4059 16.4773 35.1196 15.9554 34.5976L15.2357 33.878L14.5161 34.5976C13.4392 35.6745 11.6883 35.6745 10.614 34.5976C9.53707 33.5207 9.53707 31.7698 10.614 30.6954L11.3336 29.9758L10.614 29.2562C10.092 28.7342 9.80566 28.0425 9.80566 27.3051C9.80566 26.5678 10.092 25.876 10.614 25.3541C11.6909 24.2772 13.4418 24.2772 14.5161 25.3541L15.2357 26.0737L15.9554 25.3541C17.0322 24.2772 18.7832 24.2772 19.8575 25.3541C20.3795 25.876 20.6658 26.5678 20.6658 27.3051C20.6658 28.0425 20.3795 28.7342 19.8575 29.2562L19.1379 29.9758L19.8575 30.6954C20.9344 31.7723 20.9344 33.5232 19.8575 34.5976C19.3355 35.1196 18.6438 35.4059 17.9064 35.4059ZM15.2357 32.0967C15.4258 32.0967 15.6133 32.1676 15.7577 32.312L16.9993 33.5536C17.2426 33.7969 17.5644 33.9287 17.9064 33.9287C18.2485 33.9287 18.5703 33.7944 18.8136 33.5536C19.3127 33.0545 19.3127 32.2386 18.8136 31.7394L17.572 30.4978C17.2831 30.2089 17.2831 29.7427 17.572 29.4538L18.8136 28.2123C19.0568 27.969 19.1886 27.6472 19.1886 27.3051C19.1886 26.9631 19.0543 26.6413 18.8136 26.398C18.5703 26.1548 18.2485 26.023 17.9064 26.023C17.5644 26.023 17.2426 26.1573 16.9993 26.398L15.7577 27.6396C15.4689 27.9285 15.0026 27.9285 14.7138 27.6396L13.4722 26.398C12.973 25.8988 12.1571 25.8988 11.6579 26.398C11.4147 26.6413 11.2829 26.9631 11.2829 27.3051C11.2829 27.6472 11.4172 27.969 11.6579 28.2123L12.8995 29.4538C13.1884 29.7427 13.1884 30.2089 12.8995 30.4978L11.6579 31.7394C11.4147 31.9826 11.2829 32.3044 11.2829 32.6465C11.2829 32.9886 11.4172 33.3104 11.6579 33.5536C12.1571 34.0528 12.973 34.0528 13.4722 33.5536L14.7138 32.312C14.8582 32.1676 15.0457 32.0967 15.2357 32.0967Z" fill="#CFC796"/>
<path d="M54.1633 35.4059C53.4259 35.4059 52.7342 35.1196 52.2122 34.5976L51.4926 33.878L50.773 34.5976C50.251 35.1196 49.5592 35.4059 48.8219 35.4059C48.0845 35.4059 47.3928 35.1196 46.8708 34.5976C46.3488 34.0756 46.0625 33.3839 46.0625 32.6465C46.0625 31.9092 46.3488 31.2174 46.8708 30.6954L47.5904 29.9758L46.8708 29.2562C45.7939 28.1793 45.7939 26.4284 46.8708 25.3541C47.9477 24.2772 49.6986 24.2772 50.773 25.3541L51.4926 26.0737L52.2122 25.3541C53.2891 24.2772 55.04 24.2772 56.1143 25.3541C57.1912 26.4309 57.1912 28.1818 56.1143 29.2562L55.3947 29.9758L56.1143 30.6954C57.1912 31.7723 57.1912 33.5232 56.1143 34.5976C55.5949 35.1196 54.9006 35.4059 54.1633 35.4059ZM51.4926 32.0967C51.6826 32.0967 51.8701 32.1676 52.0145 32.312L53.2561 33.5536C53.4994 33.7969 53.8212 33.9287 54.1633 33.9287C54.5053 33.9287 54.8271 33.7944 55.0704 33.5536C55.5696 33.0545 55.5696 32.2386 55.0704 31.7394L53.8288 30.4978C53.5399 30.2089 53.5399 29.7427 53.8288 29.4538L55.0704 28.2123C55.5696 27.7131 55.5696 26.8972 55.0704 26.398C54.5712 25.8988 53.7553 25.8988 53.2561 26.398L52.0145 27.6396C51.7257 27.9285 51.2595 27.9285 50.9706 27.6396L49.729 26.398C49.2298 25.8988 48.4139 25.8988 47.9148 26.398C47.4156 26.8972 47.4156 27.7131 47.9148 28.2123L49.1563 29.4538C49.4452 29.7427 49.4452 30.2089 49.1563 30.4978L47.9148 31.7394C47.6715 31.9826 47.5397 32.3044 47.5397 32.6465C47.5397 32.9886 47.674 33.3104 47.9148 33.5536C48.158 33.7969 48.4798 33.9287 48.8219 33.9287C49.1639 33.9287 49.4858 33.7944 49.729 33.5536L50.9706 32.312C51.115 32.1676 51.3051 32.0967 51.4926 32.0967Z" fill="#CFC796"/>
<path d="M72.4175 35.4059C71.6802 35.4059 70.9884 35.1196 70.4664 34.5976L69.7468 33.878L69.0272 34.5976C68.5052 35.1196 67.8135 35.4059 67.0761 35.4059C66.3388 35.4059 65.647 35.1196 65.1251 34.5976C64.0482 33.5207 64.0482 31.7698 65.1251 30.6954L65.8447 29.9758L65.1251 29.2562C64.0482 28.1793 64.0482 26.4284 65.1251 25.3541C66.2019 24.2772 67.9528 24.2772 69.0272 25.3541L69.7468 26.0737L70.4664 25.3541C71.5433 24.2772 73.2942 24.2772 74.3686 25.3541C75.4455 26.4309 75.4455 28.1818 74.3686 29.2562L73.649 29.9758L74.3686 30.6954C75.4455 31.7723 75.4455 33.5232 74.3686 34.5976C73.8492 35.1196 73.1549 35.4059 72.4175 35.4059ZM69.7468 32.0967C69.9419 32.0967 70.1294 32.1752 70.2688 32.312L71.5104 33.5536C71.7536 33.7969 72.0754 33.9287 72.4175 33.9287C72.7596 33.9287 73.0814 33.7944 73.3246 33.5536C73.8238 33.0545 73.8238 32.2386 73.3246 31.7394L72.083 30.4978C71.7942 30.2089 71.7942 29.7427 72.083 29.4538L73.3246 28.2123C73.8238 27.7131 73.8238 26.8972 73.3246 26.398C73.0814 26.1548 72.7596 26.023 72.4175 26.023C72.0754 26.023 71.7536 26.1573 71.5104 26.398L70.2688 27.6396C69.9799 27.9285 69.5137 27.9285 69.2248 27.6396L67.9833 26.398C67.4841 25.8988 66.6682 25.8988 66.169 26.398C65.6698 26.8972 65.6698 27.7131 66.169 28.2123L67.4106 29.4538C67.55 29.5932 67.626 29.7807 67.626 29.9758C67.626 30.1709 67.5474 30.3584 67.4106 30.4978L66.169 31.7394C65.6698 32.2386 65.6698 33.0545 66.169 33.5536C66.4123 33.7969 66.7341 33.9287 67.0761 33.9287C67.4182 33.9287 67.74 33.7944 67.9833 33.5536L69.2248 32.312C69.3642 32.1727 69.5517 32.0967 69.7468 32.0967Z" fill="#CFC796"/>
<path d="M26.7804 85.0495H19.8224C19.2498 85.0495 18.6999 84.8366 18.2793 84.4464C17.8587 84.0587 17.6002 83.5292 17.5546 82.9565V82.954L16.6906 71.7872C16.6602 71.3818 16.9642 71.0245 17.3696 70.9941C17.7751 70.9612 18.1323 71.2678 18.1627 71.6732L19.0268 82.8374C19.0597 83.2479 19.4094 83.5697 19.8224 83.5697H26.7804C27.2213 83.5697 27.5786 83.2099 27.5786 82.7715V71.7492C27.5786 71.3413 27.908 71.0119 28.3159 71.0119C28.7239 71.0119 29.0533 71.3413 29.0533 71.7492V82.7715C29.0558 84.0283 28.0347 85.0495 26.7804 85.0495Z" fill="#CFC796"/>
<path d="M30.3027 72.4662H15.3047C14.0504 72.4662 13.0293 71.4451 13.0293 70.1908V67.3453C13.0293 66.9373 13.3587 66.6079 13.7667 66.6079C14.1746 66.6079 14.504 66.9373 14.504 67.3453V70.1908C14.504 70.6317 14.8638 70.9915 15.3022 70.9915H30.3001C30.741 70.9915 31.0983 70.6317 31.0983 70.1908V67.3453C31.0983 66.9373 31.4277 66.6079 31.8356 66.6079C32.2436 66.6079 32.573 66.9373 32.573 67.3453V70.1908C32.5806 71.4451 31.5595 72.4662 30.3027 72.4662Z" fill="#CFC796"/>
<path d="M43.4176 77.602C41.1574 77.602 39.3203 75.765 39.3203 73.5048V41.5958C39.3203 39.3356 41.1574 37.4985 43.4176 37.4985C45.6778 37.4985 47.5148 39.3356 47.5148 41.5958V73.5048C47.5148 75.7624 45.6778 77.602 43.4176 77.602ZM43.4176 38.9732C41.9733 38.9732 40.7976 40.149 40.7976 41.5933V73.5022C40.7976 74.9465 41.9733 76.1222 43.4176 76.1222C44.8619 76.1222 46.0376 74.9465 46.0376 73.5022V41.5958C46.0376 40.149 44.8619 38.9732 43.4176 38.9732Z" fill="#CFC796"/>
<path d="M40.0574 74.5235C39.6495 74.5235 39.3201 74.1941 39.3201 73.7861C39.3201 70.4845 36.6874 68.0875 33.0614 68.0875H11.5084C9.36725 68.0875 7.35535 67.2538 5.8401 65.7386C4.32485 64.2233 3.49121 62.2114 3.49121 60.0703V55.033C3.49121 52.8919 4.32485 50.88 5.8401 49.3647C7.35535 47.8495 9.36725 47.0159 11.5084 47.0159H33.0614C36.6874 47.0159 39.3201 44.6188 39.3201 41.3172C39.3201 40.9092 39.6495 40.5798 40.0574 40.5798C40.4654 40.5798 40.7948 40.9092 40.7948 41.3172C40.7948 42.3637 40.587 43.3519 40.179 44.2565C39.7863 45.1256 39.2212 45.8933 38.4966 46.5369C37.0776 47.7988 35.1468 48.4931 33.0589 48.4931H11.5058C7.90014 48.4931 4.96592 51.4273 4.96592 55.033V60.0703C4.96592 63.676 7.90014 66.6102 11.5058 66.6102H33.0589C35.1468 66.6102 37.0801 67.3045 38.4966 68.5664C39.2212 69.21 39.7863 69.9777 40.179 70.8469C40.587 71.7514 40.7948 72.7397 40.7948 73.7861C40.7973 74.1916 40.4654 74.5235 40.0574 74.5235Z" fill="#CFC796"/>
<path d="M8.9901 56.3277H4.2315C3.82354 56.3277 3.49414 55.9983 3.49414 55.5904C3.49414 55.1824 3.82354 54.853 4.2315 54.853H8.9901C9.39805 54.853 9.72745 55.1824 9.72745 55.5904C9.72745 55.9983 9.39551 56.3277 8.9901 56.3277Z" fill="#CFC796"/>
<path d="M8.9901 60.2474H4.2315C3.82354 60.2474 3.49414 59.918 3.49414 59.5101C3.49414 59.1021 3.82354 58.7727 4.2315 58.7727H8.9901C9.39805 58.7727 9.72745 59.1021 9.72745 59.5101C9.72745 59.918 9.39551 60.2474 8.9901 60.2474Z" fill="#CFC796"/>
<path d="M46.7774 64.165C46.3694 64.165 46.04 63.8356 46.04 63.4277C46.04 63.0197 46.3694 62.6903 46.7774 62.6903C49.6103 62.6903 51.9161 60.3845 51.9161 57.5516C51.9161 54.7188 49.6103 52.4129 46.7774 52.4129C46.3694 52.4129 46.04 52.0835 46.04 51.6756C46.04 51.2676 46.3694 50.9382 46.7774 50.9382C48.5435 50.9382 50.2057 51.6274 51.4549 52.8766C52.7041 54.1258 53.3933 55.788 53.3933 57.5542C53.3933 59.3203 52.7041 60.9825 51.4549 62.2317C50.2057 63.4783 48.5435 64.165 46.7774 64.165Z" fill="#CFC796"/>
<path d="M4.33798 62.047H3.30163C1.48231 62.047 0 60.5672 0 58.7454V56.3534C0 54.5341 1.47978 53.0518 3.30163 53.0518H4.33798C4.74593 53.0518 5.07533 53.3812 5.07533 53.7891C5.07533 54.1971 4.74593 54.5265 4.33798 54.5265H3.30163C2.29568 54.5265 1.47724 55.3449 1.47724 56.3508V58.7428C1.47724 59.7488 2.29568 60.5672 3.30163 60.5672H4.33544C4.7434 60.5672 5.0728 60.8966 5.0728 61.3046C5.0728 61.7125 4.74593 62.047 4.33798 62.047Z" fill="#CFC796"/>
<path d="M26.628 68.0852C26.22 68.0852 25.8906 67.7558 25.8906 67.3478V47.7535C25.8906 47.3455 26.22 47.0161 26.628 47.0161C27.0359 47.0161 27.3653 47.3455 27.3653 47.7535V67.3478C27.3679 67.7533 27.0359 68.0852 26.628 68.0852Z" fill="#CFC796"/>
<path d="M55.4786 58.2769C55.0706 58.2769 54.7412 57.9475 54.7412 57.5395C54.7412 57.1316 55.0706 56.7996 55.4786 56.7996L58.0631 56.7971C58.4711 56.7971 58.8005 57.1265 58.8005 57.5345C58.8005 57.9424 58.4711 58.2744 58.0631 58.2744L55.4786 58.2769Z" fill="#CFC796"/>
<path d="M54.2549 67.5026C54.0674 67.5026 53.8774 67.4316 53.7329 67.2872L51.9035 65.4628C51.6146 65.174 51.6146 64.7077 51.901 64.4189C52.1898 64.13 52.656 64.13 52.9449 64.4163L54.7744 66.2407C55.0632 66.5296 55.0632 66.9958 54.7769 67.2847C54.6325 67.4291 54.445 67.5026 54.2549 67.5026Z" fill="#CFC796"/>
<path d="M52.405 50.8829C52.2174 50.8829 52.0274 50.8119 51.883 50.6675C51.5941 50.3787 51.5941 49.9124 51.8804 49.6236L53.7048 47.7941C53.9937 47.5053 54.4599 47.5052 54.7488 47.7916C55.0376 48.0804 55.0376 48.5467 54.7513 48.8355L52.9269 50.665C52.7825 50.8119 52.595 50.8829 52.405 50.8829Z" fill="#CFC796"/>
</svg>
