<svg width="81" height="101" viewBox="0 0 81 101" fill="none" xmlns="http://www.w3.org/2000/svg">
<path d="M80.9999 89.245V99.7051C80.9999 100.418 80.413 101 79.6934 101C78.9739 101 78.387 100.418 78.387 99.7051V89.245C78.387 80.0241 70.8238 72.5127 61.5051 72.5127H51.574L41.5154 84.9708C41.0204 85.5778 39.9742 85.5778 39.4792 84.9708L29.4206 72.5127H19.4896C10.176 72.5127 2.61289 80.024 2.61289 89.245V99.7051C2.61289 100.418 2.02601 101 1.30645 101C0.586881 101 0 100.418 0 99.7051V89.245C0 78.5876 8.74195 69.923 19.4948 69.923H30.0484C30.4413 69.923 30.819 70.105 31.069 70.4136L40.5 82.0927L49.931 70.4136C50.181 70.105 50.5587 69.923 50.9516 69.923H61.5052C72.2579 69.923 80.9999 78.5874 80.9999 89.245ZM16.9841 90.641C16.2645 90.641 15.6776 91.2227 15.6776 91.9359V99.7051C15.6776 100.418 16.2645 101 16.9841 101C17.7036 101 18.2905 100.418 18.2905 99.7051V91.9359C18.2905 91.2227 17.7036 90.641 16.9841 90.641ZM64.0161 90.641C63.2965 90.641 62.7096 91.2227 62.7096 91.9359V99.7051C62.7096 100.418 63.2965 101 64.0161 101C64.7356 101 65.3225 100.418 65.3225 99.7051V91.9359C65.3225 91.2227 64.7356 90.641 64.0161 90.641ZM40.5001 7.76923C41.2196 7.76923 41.8065 7.18755 41.8065 6.47436V1.29487C41.8065 0.581682 41.2196 0 40.5001 0C39.7805 0 39.1936 0.581682 39.1936 1.29487V6.47436C39.1936 7.18755 39.7805 7.76923 40.5001 7.76923ZM6.53249 33.6667H11.7583C12.4778 33.6667 13.0647 33.085 13.0647 32.3718C13.0647 31.6586 12.4778 31.0769 11.7583 31.0769H6.53249C5.81292 31.0769 5.22604 31.6586 5.22604 32.3718C5.22604 33.085 5.81292 33.6667 6.53249 33.6667ZM69.2419 33.6667H74.4676C75.1872 33.6667 75.7741 33.085 75.7741 32.3718C75.7741 31.6586 75.1872 31.0769 74.4676 31.0769H69.2419C68.5223 31.0769 67.9354 31.6586 67.9354 32.3718C67.9354 33.085 68.5223 33.6667 69.2419 33.6667ZM19.2547 13.1404C19.5149 13.3983 19.8415 13.5147 20.1835 13.5147C20.5254 13.5147 20.852 13.3831 21.1123 13.1404C21.6226 12.6345 21.6226 11.8202 21.1123 11.3143L17.4175 7.6523C16.9072 7.1465 16.0856 7.1465 15.5752 7.6523C15.0647 8.15811 15.0648 8.97243 15.5752 9.47833L19.2547 13.1404ZM61.7442 51.6019C61.2339 51.0961 60.4123 51.0961 59.9018 51.6019C59.3915 52.1078 59.3915 52.9221 59.9018 53.428L63.5966 57.09C63.8569 57.348 64.1835 57.4643 64.5254 57.4643C64.8673 57.4643 65.1939 57.3328 65.4542 57.09C65.9645 56.5842 65.9645 55.7699 65.4542 55.264L61.7442 51.6019ZM60.8256 13.5198C61.1675 13.5198 61.4941 13.3882 61.7544 13.1455L65.4491 9.48343C65.9595 8.97763 65.9595 8.16331 65.4491 7.65741C64.9388 7.1516 64.1172 7.1516 63.6068 7.65741L59.912 11.3194C59.4017 11.8252 59.4017 12.6396 59.912 13.1455C60.1468 13.4034 60.4888 13.5198 60.8256 13.5198ZM16.4874 57.4651C16.8294 57.4651 17.156 57.3336 17.4162 57.0908L21.111 53.4288C21.6213 52.923 21.6213 52.1087 21.111 51.6028C20.6007 51.097 19.7791 51.097 19.2687 51.6028L15.5739 55.2648C15.0636 55.7706 15.0636 56.5849 15.5739 57.0908C15.8087 57.3488 16.1455 57.4651 16.4874 57.4651ZM19.5953 33.6667C19.5953 27.9308 21.9071 22.6096 26.1021 18.6436C30.297 14.6932 35.7831 12.675 41.5861 12.9734C52.3132 13.5197 61.0142 22.2702 61.3918 32.9119C61.6419 40.0185 58.2686 46.6751 52.364 50.7164C50.6646 51.8797 49.6491 53.7057 49.6491 55.6125V60.792C49.6491 62.967 47.8578 64.7424 45.6634 64.7424H35.3291C33.1449 64.7424 31.3536 62.967 31.3536 60.792V55.6125C31.3536 53.7106 30.333 51.8847 28.6489 50.7315C22.9792 46.8469 19.5956 40.4787 19.5956 33.6651L19.5953 33.6667ZM47.0307 55.629C47.0307 55.2142 47.0715 54.7995 47.1328 54.3847H33.8645C33.9309 54.7843 33.9666 55.1991 33.9666 55.6138V60.7933C33.9666 61.5419 34.579 62.1539 35.3394 62.1539H45.6736C46.4289 62.1539 47.0464 61.547 47.0464 60.7933V55.629L47.0307 55.629ZM22.2082 33.6667C22.2082 39.6251 25.1732 45.2042 30.1235 48.5978C31.3636 49.4375 32.3332 50.5553 32.9966 51.7946H47.9946C48.6631 50.5503 49.6277 49.4376 50.8677 48.5978C56.0424 45.0622 58.9923 39.2353 58.7728 33.0089C58.4462 23.6969 50.8321 16.0344 41.4467 15.554C41.1252 15.554 40.8088 15.5388 40.4822 15.5388C35.7667 15.5388 31.3371 17.289 27.9025 20.5262C24.2333 23.9809 22.2082 28.6546 22.2082 33.6667Z" fill="#CFC796"/>
</svg>
