<svg width="86" height="54" viewBox="0 0 86 54" fill="none" xmlns="http://www.w3.org/2000/svg">
<path d="M79.166 0H6.006C4.41464 0.00158502 2.88881 0.634044 1.76299 1.75875C0.637159 2.88345 0.00317559 4.40864 0 6V47.719C0.00317559 49.3104 0.637159 50.8355 1.76299 51.9603C2.88881 53.085 4.41464 53.7174 6.006 53.719H79.166C80.7574 53.7174 82.2832 53.085 83.409 51.9603C84.5348 50.8355 85.1688 49.3104 85.172 47.719V6.005C85.1701 4.41277 84.5367 2.8863 83.4108 1.76052C82.2848 0.634734 80.7582 0.00158797 79.166 0ZM83.496 47.719C83.4947 48.867 83.0381 49.9676 82.2263 50.7793C81.4146 51.5911 80.314 52.0477 79.166 52.049H6.006C4.85802 52.0477 3.75743 51.5911 2.94569 50.7793C2.13394 49.9676 1.67732 48.867 1.676 47.719V6.005C1.67732 4.85702 2.13394 3.75643 2.94569 2.94469C3.75743 2.13294 4.85802 1.67632 6.006 1.675H79.166C80.314 1.67632 81.4146 2.13294 82.2263 2.94469C83.0381 3.75643 83.4947 4.85702 83.496 6.005V47.719ZM24.742 22.105C26.9398 25.7845 28.2272 29.9356 28.497 34.213H27.654C26.8957 34.213 26.1685 34.5142 25.6324 35.0504C25.0962 35.5865 24.795 36.3137 24.795 37.072C24.795 37.8303 25.0962 38.5574 25.6324 39.0936C26.1685 39.6298 26.8957 39.931 27.654 39.931H57.511C58.2693 39.931 58.9964 39.6298 59.5326 39.0936C60.0688 38.5574 60.37 37.8303 60.37 37.072C60.37 36.3137 60.0688 35.5865 59.5326 35.0504C58.9964 34.5142 58.2693 34.213 57.511 34.213H56.771C57.0524 29.9129 58.3576 25.7423 60.578 22.049C61.1758 21.7946 61.689 21.3754 62.0577 20.8405C62.4264 20.3056 62.6354 19.6768 62.6604 19.0276C62.6854 18.3784 62.5254 17.7354 62.1989 17.1737C61.8724 16.612 61.393 16.1546 60.8166 15.855C60.2401 15.5553 59.5903 15.4257 58.943 15.4813C58.2957 15.5368 57.6775 15.7752 57.1605 16.1687C56.6435 16.5621 56.249 17.0945 56.023 17.7036C55.797 18.3127 55.7488 18.9735 55.884 19.609C54.129 21.935 52.018 23.009 50.219 22.477C48.212 21.886 46.859 19.477 46.557 16.002C47.3965 15.2153 47.98 14.1943 48.2319 13.0717C48.4837 11.949 48.3922 10.7766 47.9692 9.7067C47.5462 8.63676 46.8113 7.71871 45.8599 7.07178C44.9085 6.42485 43.7845 6.07892 42.634 6.07892C41.4835 6.07892 40.3595 6.42485 39.4081 7.07178C38.4567 7.71871 37.7218 8.63676 37.2988 9.7067C36.8758 10.7766 36.7843 11.949 37.0361 13.0717C37.288 14.1943 37.8715 15.2153 38.711 16.002C38.411 19.462 37.064 21.859 35.07 22.447C33.242 22.988 31.089 21.874 29.311 19.469C29.3446 19.2812 29.362 19.0908 29.363 18.9C29.3638 18.2744 29.1932 17.6604 28.8698 17.1249C28.5463 16.5894 28.0823 16.1526 27.5282 15.8622C26.9741 15.5717 26.351 15.4385 25.7265 15.4771C25.1021 15.5158 24.5001 15.7247 23.9861 16.0813C23.472 16.4378 23.0653 16.9284 22.8104 17.4997C22.5554 18.071 22.4618 18.7013 22.5397 19.3221C22.6176 19.9429 22.864 20.5304 23.2523 21.021C23.6405 21.5116 24.1557 21.8865 24.742 22.105ZM58.695 37.072C58.6945 37.3858 58.5695 37.6865 58.3476 37.9083C58.1256 38.13 57.8248 38.2547 57.511 38.255H27.654C27.4957 38.2596 27.3381 38.2324 27.1904 38.175C27.0428 38.1176 26.9082 38.0311 26.7946 37.9208C26.681 37.8104 26.5907 37.6784 26.529 37.5325C26.4674 37.3867 26.4356 37.2299 26.4356 37.0715C26.4356 36.9131 26.4674 36.7563 26.529 36.6105C26.5907 36.4646 26.681 36.3326 26.7946 36.2222C26.9082 36.1119 27.0428 36.0254 27.1904 35.968C27.3381 35.9106 27.4957 35.8834 27.654 35.888H57.511C57.8249 35.8883 58.1259 36.0131 58.3479 36.2351C58.5699 36.4571 58.6947 36.7581 58.695 37.072ZM59.234 17.152C59.58 17.1518 59.9183 17.2542 60.2061 17.4463C60.4938 17.6384 60.7182 17.9116 60.8507 18.2312C60.9832 18.5509 61.0179 18.9026 60.9504 19.242C60.883 19.5813 60.7164 19.8931 60.4717 20.1377C60.2271 20.3824 59.9153 20.549 59.576 20.6164C59.2366 20.6839 58.8849 20.6492 58.5652 20.5167C58.2456 20.3842 57.9725 20.1598 57.7803 19.8721C57.5882 19.5843 57.4858 19.246 57.486 18.9C57.4865 18.4366 57.6709 17.9923 57.9986 17.6646C58.3263 17.3369 58.7706 17.1525 59.234 17.152ZM38.573 11.822C38.573 11.0188 38.8112 10.2337 39.2574 9.56583C39.7036 8.898 40.3379 8.37749 41.0799 8.07013C41.822 7.76276 42.6385 7.68234 43.4263 7.83903C44.214 7.99573 44.9376 8.3825 45.5056 8.95044C46.0735 9.51838 46.4603 10.242 46.617 11.0297C46.7737 11.8175 46.6932 12.634 46.3859 13.3761C46.0785 14.1181 45.558 14.7524 44.8902 15.1986C44.2223 15.6448 43.4372 15.883 42.634 15.883C41.5573 15.8819 40.525 15.4537 39.7636 14.6924C39.0023 13.931 38.5741 12.8987 38.573 11.822ZM34.134 24.262C34.6112 24.2633 35.086 24.1959 35.544 24.062C38.028 23.328 39.744 20.75 40.276 17.056C41.0168 17.3915 41.8207 17.565 42.634 17.565C43.4473 17.565 44.2512 17.3915 44.992 17.056C45.523 20.767 47.249 23.356 49.745 24.091C50.2023 24.2248 50.6765 24.2922 51.153 24.291C52.2481 24.2134 53.3134 23.9 54.2761 23.3721C55.2387 22.8443 56.0758 22.1146 56.73 21.233C57.2164 21.7591 57.8559 22.1191 58.558 22.262C56.5189 25.9362 55.3345 30.0229 55.093 34.218H30.175C29.941 30.0144 28.7592 25.9182 26.718 22.236C27.4136 22.0728 28.0407 21.6959 28.511 21.158C30.212 23.162 32.209 24.262 34.134 24.262ZM25.934 17.156C26.2802 17.1558 26.6186 17.2583 26.9065 17.4506C27.1943 17.6429 27.4187 17.9163 27.5511 18.2362C27.6834 18.556 27.7179 18.908 27.6501 19.2474C27.5824 19.5869 27.4154 19.8986 27.1703 20.1431C26.9252 20.3876 26.6131 20.5539 26.2735 20.6209C25.9339 20.6879 25.582 20.6526 25.2624 20.5195C24.9429 20.3864 24.67 20.1615 24.4784 19.8732C24.2868 19.5849 24.185 19.2462 24.186 18.9C24.1868 18.436 24.3718 17.9912 24.7003 17.6634C25.0288 17.3357 25.474 17.1517 25.938 17.152L25.934 17.156ZM67.691 42.962H17.486C16.8012 42.9754 16.1489 43.2568 15.6694 43.7459C15.1898 44.2349 14.9211 44.8926 14.9211 45.5775C14.9211 46.2624 15.1898 46.9201 15.6694 47.4091C16.1489 47.8982 16.8012 48.1796 17.486 48.193H67.696C68.3808 48.1796 69.0331 47.8982 69.5126 47.4091C69.9922 46.9201 70.2609 46.2624 70.2609 45.5775C70.2609 44.8926 69.9922 44.2349 69.5126 43.7459C69.0331 43.2568 68.3808 42.9754 67.696 42.962H67.691ZM67.691 46.517H17.486C17.36 46.5211 17.2345 46.4998 17.117 46.4545C16.9994 46.4091 16.8921 46.3406 16.8016 46.2529C16.711 46.1653 16.639 46.0603 16.5899 45.9443C16.5407 45.8283 16.5153 45.7035 16.5153 45.5775C16.5153 45.4515 16.5407 45.3267 16.5899 45.2107C16.639 45.0947 16.711 44.9897 16.8016 44.9021C16.8921 44.8144 16.9994 44.7459 17.117 44.7005C17.2345 44.6552 17.36 44.6339 17.486 44.638H67.696C67.822 44.6339 67.9474 44.6552 68.065 44.7005C68.1826 44.7459 68.2899 44.8144 68.3804 44.9021C68.471 44.9897 68.543 45.0947 68.5921 45.2107C68.6413 45.3267 68.6667 45.4515 68.6667 45.5775C68.6667 45.7035 68.6413 45.8283 68.5921 45.9443C68.543 46.0603 68.471 46.1653 68.3804 46.2529C68.2899 46.3406 68.1826 46.4091 68.065 46.4545C67.9474 46.4998 67.822 46.5211 67.696 46.517H67.691Z" fill="#CFC796"/>
</svg>
